<?xml version="1.0" encoding="UTF-8"?>
<svg id="Layer_1" data-name="Layer 1" xmlns="http://www.w3.org/2000/svg" viewBox="0 0 1545.7 258.41">
  <defs>
    <style>
      .cls-1 {
        fill: #13bdc7;
      }

      .cls-1, .cls-2 {
        font-family: Quicksand-Bold, Quicksand;
        font-size: 145.87px;
        font-weight: 700;
      }

      .cls-1, .cls-2, .cls-3 {
        isolation: isolate;
      }

      .cls-4 {
        stroke: #8f9193;
      }

      .cls-4, .cls-5 {
        fill: none;
        stroke-linecap: round;
        stroke-linejoin: round;
        stroke-width: 21.39px;
      }

      .cls-5 {
        stroke: #10bdc7;
      }

      .cls-2 {
        fill: #8f9193;
      }
    </style>
  </defs>
  <g>
    <path class="cls-4" d="m182.3,10.95L11.49,81.17c-1.07.44-1.06,1.95.01,2.38l171.62,68.65c.31.12.65.12.96,0l171.62-68.65c1.07-.43,1.08-1.94.01-2.38L184.9,10.95c-.83-.34-1.76-.34-2.59,0h0Z"/>
    <path class="cls-4" d="m72.66,211.98v-66.86c0-.91.92-1.53,1.77-1.19l108.68,43.83c.31.12.65.12.96,0l108.68-43.82c.85-.34,1.77.28,1.77,1.19v66.86c0,.44-.21.84-.58,1.08-15.94,10.1-55.4,34.59-110.17,34.64-54.98.05-94.59-24.54-110.52-34.64-.37-.24-.58-.64-.58-1.08h-.01Z"/>
    <line class="cls-5" x1="14.38" y1="152.8" x2="14.38" y2="221.15"/>
    <line class="cls-5" x1="14.38" y1="120.15" x2="14.38" y2="120.15"/>
  </g>
  <g class="cls-3">
    <text class="cls-1" transform="translate(448.63 195.77)"><tspan x="0" y="0">i</tspan></text>
    <text class="cls-2" transform="translate(483.05 195.77)"><tspan x="0" y="0">mpact tu</tspan></text>
    <text class="cls-2" transform="translate(1120.2 195.77)"><tspan x="0" y="0">t</tspan></text>
    <text class="cls-2" transform="translate(1179.13 195.77)"><tspan x="0" y="0">or</tspan></text>
    <text class="cls-1" transform="translate(1332 195.77)"><tspan x="0" y="0">i</tspan></text>
    <text class="cls-2" transform="translate(1366.42 195.77)"><tspan x="0" y="0">ng</tspan></text>
  </g>
</svg>